<svg width="544" height="96" viewBox="0 0 544 96" fill="none" xmlns="http://www.w3.org/2000/svg">
<path d="M140.57 18.63V67.59C140.57 68.6 140.48 69.47 140.29 70.23C140.1 70.98 139.77 71.58 139.3 72.02C138.83 72.46 138.12 72.68 137.18 72.68C136.49 72.68 135.89 72.54 135.39 72.26C134.89 71.98 134.5 71.46 134.21 70.71C133.93 69.96 133.79 68.92 133.79 67.6V18.63H117.03V67.3C117.03 71.44 117.75 75.08 119.2 78.22C120.64 81.36 122.84 83.79 125.79 85.52C128.74 87.25 132.47 88.11 136.99 88.11C141.01 88.11 144.52 87.36 147.53 85.85C150.54 84.34 152.9 82.05 154.59 78.98C156.28 75.91 157.13 72.01 157.13 67.31V18.63H140.56H140.57Z" fill="white" style="fill:white;fill-opacity:1;"/>
<path d="M161.75 87.27V18.63H179.54L186.88 52.81H187.54L186.69 33.13V18.63H202.13V87.26H184.52L176.89 53.55H176.33L177.18 72.47V87.25H161.74L161.75 87.27Z" fill="white" style="fill:white;fill-opacity:1;"/>
<path d="M224.27 18.63H206.66V87.26H224.27V18.63Z" fill="white" style="fill:white;fill-opacity:1;"/>
<path d="M252.7 18.63L248.75 57.51L247.71 71.64H247.05L245.83 57.42L242.06 18.63H226.34L236.32 87.27H258.35L268.42 18.63H252.7Z" fill="white" style="fill:white;fill-opacity:1;"/>
<path d="M301.94 33.41V18.63H270.68V87.27H301.94V72.48H287.35V59.12H300.62V45.37H287.35V33.41H301.94Z" fill="white" style="fill:white;fill-opacity:1;"/>
<path d="M344.96 80.3V69.28C344.96 65.89 344.47 62.85 343.5 60.15C342.53 57.45 340.72 55.88 338.09 55.44V54.78C340.47 53.9 342.39 52.1 343.83 49.37C345.27 46.64 346 43.05 346 38.59C346 34.76 345.48 31.56 344.45 28.99C343.41 26.42 341.94 24.38 340.03 22.87C338.11 21.36 335.82 20.28 333.16 19.62C330.49 18.96 327.53 18.63 324.26 18.63H305.34V87.26H322.19V63.91H324.54C325.61 63.91 326.38 64.29 326.85 65.04C327.32 65.79 327.6 66.72 327.7 67.82C327.79 68.92 327.84 70.03 327.84 71.16V81.33C327.84 81.96 327.9 82.87 328.03 84.06C328.16 85.25 328.34 86.32 328.6 87.26H345.64C345.45 86.26 345.29 85.2 345.17 84.11C345.04 83.01 344.98 81.74 344.98 80.3H344.96ZM327.97 48.48C327.25 49.99 325.73 50.74 323.4 50.74H322.18V33.42H323.31C324.69 33.42 325.79 33.7 326.61 34.27C327.42 34.83 328.04 35.75 328.45 37C328.86 38.26 329.06 39.95 329.06 42.08C329.06 44.84 328.7 46.98 327.98 48.48H327.97Z" fill="white" style="fill:white;fill-opacity:1;"/>
<path d="M386.62 60.67C385.83 58.44 384.78 56.47 383.47 54.74C382.15 53.01 380.61 51.44 378.86 50.03C377.1 48.62 375.22 47.32 373.21 46.12C371.26 44.93 369.69 43.86 368.5 42.92C367.31 41.98 366.46 40.96 365.96 39.86C365.46 38.76 365.21 37.37 365.21 35.67C365.21 34.54 365.32 33.57 365.54 32.75C365.76 31.94 366.12 31.31 366.62 30.87C367.12 30.43 367.78 30.21 368.6 30.21C369.54 30.21 370.29 30.51 370.86 31.1C371.42 31.7 371.83 32.64 372.08 33.92C372.33 35.21 372.42 36.95 372.36 39.15H387.24C387.24 34 386.45 29.86 384.89 26.72C383.32 23.58 381.09 21.31 378.21 19.89C375.32 18.48 371.84 17.77 367.76 17.77C364.06 17.77 360.76 18.44 357.87 19.79C354.98 21.14 352.72 23.21 351.09 26C349.46 28.79 348.64 32.39 348.64 36.78C348.64 39.79 349.02 42.43 349.77 44.69C350.52 46.95 351.54 48.91 352.83 50.57C354.12 52.23 355.54 53.69 357.11 54.95C358.68 56.21 360.28 57.34 361.91 58.34C363.54 59.35 364.92 60.26 366.05 61.07C367.18 61.89 368.11 62.7 368.83 63.52C369.55 64.34 370.08 65.25 370.43 66.25C370.77 67.25 370.95 68.42 370.95 69.73C370.95 71.49 370.7 72.88 370.2 73.92C369.7 74.96 368.76 75.47 367.38 75.47C366.44 75.47 365.62 75.17 364.93 74.58C364.24 73.98 363.72 72.95 363.38 71.47C363.03 70 362.86 68 362.86 65.49H348.27C348.27 70.01 348.93 73.98 350.25 77.4C351.57 80.82 353.67 83.47 356.56 85.36C359.45 87.24 363.24 88.18 367.95 88.18C372.09 88.18 375.64 87.46 378.59 86.01C381.54 84.57 383.82 82.37 385.42 79.42C387.02 76.47 387.82 72.74 387.82 68.22C387.82 65.4 387.43 62.87 386.64 60.64L386.62 60.67Z" fill="white" style="fill:white;fill-opacity:1;"/>
<path d="M421.98 33.41V18.63H390.72V87.27H421.98V72.48H407.38V59.12H420.66V45.37H407.38V33.41H421.98Z" fill="white" style="fill:white;fill-opacity:1;"/>
<path fill-rule="evenodd" clip-rule="evenodd" d="M50.21 0C23.02 0 1 22.02 1 49.21C1 70.99 15.09 89.38 34.65 95.9C37.11 96.33 38.03 94.85 38.03 93.56C38.03 92.39 37.97 88.52 37.97 84.39C25.6 86.67 22.41 81.38 21.42 78.61C20.87 77.2 18.47 72.83 16.38 71.66C14.66 70.74 12.2 68.46 16.32 68.4C20.2 68.34 22.96 71.97 23.89 73.44C28.32 80.88 35.39 78.79 38.22 77.5C38.65 74.3 39.94 72.15 41.36 70.92C30.41 69.69 18.97 65.44 18.97 46.62C18.97 41.27 20.88 36.84 24.01 33.39C23.52 32.16 21.8 27.12 24.5 20.35C24.5 20.35 28.62 19.06 38.03 25.39C41.97 24.28 46.15 23.73 50.33 23.73C54.51 23.73 58.7 24.28 62.63 25.39C72.04 18.99 76.16 20.35 76.16 20.35C78.87 27.12 77.14 32.16 76.65 33.39C79.79 36.83 81.69 41.2 81.69 46.62C81.69 65.51 70.19 69.69 59.24 70.92C61.02 72.46 62.56 75.41 62.56 80.02C62.56 86.6 62.5 91.89 62.5 93.55C62.5 94.84 63.42 96.38 65.88 95.89C85.32 89.37 99.41 70.91 99.41 49.2C99.43 22.02 77.4 0 50.21 0Z" fill="white" style="fill:white;fill-opacity:1;"/>
<path d="M426.37 87.2696V85.0096C426.37 81.4296 427.12 78.2796 428.63 75.5496C430.14 72.8196 432.14 70.4196 434.66 68.3496C437.17 66.2796 439.95 64.3796 442.99 62.6496C446.03 60.9196 449.06 59.2596 452.08 57.6596C455.09 56.0596 457.85 54.4096 460.36 52.7196C462.87 51.0296 464.89 49.1096 466.43 46.9796C467.97 44.8496 468.74 42.3696 468.74 39.5396C468.74 36.7096 468.07 34.4896 466.72 32.6696C465.37 30.8496 463.55 29.4696 461.26 28.5296C458.97 27.5896 456.44 27.1196 453.68 27.1196C450.16 27.1196 447.2 27.7196 444.78 28.9096C442.36 30.0996 440.51 31.7296 439.23 33.8096C437.94 35.8796 437.21 38.3296 437.02 41.1496H426.57C426.82 36.1296 428.09 31.9696 430.38 28.6796C432.67 25.3796 435.82 22.8796 439.84 21.1496C443.86 19.4196 448.6 18.5596 454.06 18.5596C459.52 18.5596 464.16 19.4196 467.99 21.1496C471.82 22.8796 474.74 25.2896 476.75 28.3996C478.76 31.5096 479.76 35.1296 479.76 39.2696C479.76 42.5296 479.09 45.4396 477.74 47.9796C476.39 50.5196 474.6 52.7996 472.37 54.8096C470.14 56.8196 467.69 58.6196 465.03 60.2196C462.36 61.8196 459.66 63.3296 456.93 64.7396C454.2 66.1496 451.63 67.5796 449.21 69.0196C446.79 70.4596 444.8 71.9896 443.23 73.5896C441.66 75.1896 440.69 76.9596 440.31 78.9096H480.42V87.2896H426.38L426.37 87.2696ZM533.07 87.2696V83.0696H519.04L515.44 87.2696H533.07ZM498.39 22.0096C499.36 20.6596 500.61 19.5496 502.09 18.6396H488.33C486.44 21.6196 485.46 25.1596 485.4 29.2596H495.94C496.13 26.4396 496.94 24.0196 498.39 22.0096ZM535.3 43.8996C533.04 42.5496 530.31 41.7196 527.11 41.4096V40.8496C530 40.3496 532.48 39.4096 534.55 38.0296C536.62 36.6496 538.25 34.8896 539.45 32.7596C540.64 30.6296 541.24 28.2096 541.24 25.5096C541.24 22.8096 540.72 20.6696 539.75 18.6596H525.73C526.59 19.2096 527.36 19.8396 528.01 20.5696C529.42 22.1696 530.13 24.1896 530.13 26.6396C530.13 28.8996 529.58 30.8496 528.48 32.4796C527.38 34.1096 525.67 35.3996 523.35 36.3396C521.03 37.2796 518.01 37.7496 514.31 37.7496H505.74V45.1896H515.06C517.63 45.1896 519.92 45.3896 521.93 45.7996C523.94 46.2096 525.65 46.8696 527.06 47.7796C528.47 48.6896 529.55 49.8796 530.31 51.3596C531.06 52.8396 531.44 54.5796 531.44 56.5896C531.44 59.0396 530.76 61.1996 529.42 63.0896C528.07 64.9696 526.03 66.4196 523.3 67.4196C520.57 68.4196 517.13 68.9296 512.99 68.9296C509.41 68.9296 506.29 68.4296 503.62 67.4196C500.95 66.4196 498.88 64.8896 497.41 62.8496C495.93 60.8096 495.13 58.3196 495.01 55.3696H484.18C484.24 59.7596 485.37 63.6096 487.57 66.8996C489.77 70.1996 492.98 72.7396 497.22 74.5296C501.46 76.3196 506.68 77.2096 512.9 77.2096C519.12 77.2096 524.53 76.4096 528.95 74.8096C533.37 73.2096 536.75 70.9396 539.07 67.9796C541.39 65.0296 542.55 61.5496 542.55 57.5296C542.55 54.3896 541.91 51.6796 540.62 49.3896C539.33 47.0996 537.56 45.2796 535.3 43.9296V43.8996Z" fill="white" style="fill:white;fill-opacity:1;"/>
</svg>
